<svg id="certificate_logo_1" data-name="certificate logo 1" xmlns="http://www.w3.org/2000/svg" width="43.838" height="42.866" viewBox="0 0 43.838 42.866">
  <path id="Path_88" data-name="Path 88" d="M3584.262,789.107a11.222,11.222,0,1,1-3.31-7.958l-7.91,7.958-3.5-3.516-.06,5.36,3.5,3.473,10.181-10.152A11.176,11.176,0,0,1,3584.262,789.107Zm11.772,20.817h-21.559v-.3h21.559Z" transform="translate(-3552.196 -768.476)" fill="#d66930"/>
  <path id="Path_89" data-name="Path 89" d="M5202.434,1995.222h-.263v-10.24h.263Z" transform="translate(-5161 -1952.357)" fill="#d66930"/>
  <path id="Path_90" data-name="Path 90" d="M3095.354,327.13v-1.083h2.26V329.7c-.894.005-.748.014-1.114.022-.465.009-.728-.006-1.183-.006-.562,0-1.02.065-1.374-.212a2.031,2.031,0,0,1-.823-1.034,8.369,8.369,0,0,1-.292-2.295,6.842,6.842,0,0,1,.32-2.188,2.066,2.066,0,0,1,.938-1.123,2.513,2.513,0,0,1,1.3-.264,2.547,2.547,0,0,1,1.175.239,1.994,1.994,0,0,1,.782.637,2.651,2.651,0,0,1,.183,1.332l-1.34,0c-.058-.261-.027-.552-.093-.8a.768.768,0,0,0-.737-.412.783.783,0,0,0-.77.417,6.456,6.456,0,0,0-.287,2.144,6.679,6.679,0,0,0,.187,2.135c.367.618.561.545.9.545a2.347,2.347,0,0,0,.466-.034c.208-.038.134-.008.339-.044V327.13h-.837Zm2.644.439,1.534.009a3.525,3.525,0,0,0,.11.92c.151.278.563.316.843.316a.708.708,0,0,0,.516-.28,1,1,0,0,0,.135-.629.7.7,0,0,0-.229-.443,2.075,2.075,0,0,0-.579-.465c.185.122-1.439-.95-1.576-1.035a1.669,1.669,0,0,1-.617-1.355,2.156,2.156,0,0,1,.245-1.1,2.082,2.082,0,0,1,.705-.67,3.017,3.017,0,0,1,1.369-.269,2.726,2.726,0,0,1,1.69.589c.318.325.352.791.364,1.538l-1.412-.005a2.678,2.678,0,0,0-.165-.843c-.128-.2-.418-.21-.627-.21a.768.768,0,0,0-.49.224,1.028,1.028,0,0,0-.164.517.927.927,0,0,0,.177.565,6.455,6.455,0,0,0,1.24.829,2.219,2.219,0,0,1,1.266,1.025,1.554,1.554,0,0,1,.189.777,3.047,3.047,0,0,1-.15,1.249,1.492,1.492,0,0,1-.772.708,2.1,2.1,0,0,1-1.14.189c-.806,0-1.632.051-2.047-.407-.546-.6-.368-.9-.418-1.748Zm-10.047,0,1.535.009a3.474,3.474,0,0,0,.109.92c.151.278.562.316.843.316a.707.707,0,0,0,.516-.28,1,1,0,0,0,.136-.629.7.7,0,0,0-.229-.443,2.081,2.081,0,0,0-.579-.465c.184.122-1.439-.95-1.576-1.035a1.668,1.668,0,0,1-.617-1.355,2.151,2.151,0,0,1,.246-1.1,2.077,2.077,0,0,1,.7-.67,3.017,3.017,0,0,1,1.369-.269,2.727,2.727,0,0,1,1.691.589c.318.325.351.791.364,1.538l-1.411-.005a2.689,2.689,0,0,0-.166-.843c-.128-.2-.418-.21-.626-.21a.766.766,0,0,0-.49.224,1.028,1.028,0,0,0-.164.517.925.925,0,0,0,.177.565,6.435,6.435,0,0,0,1.24.829,2.223,2.223,0,0,1,1.266,1.025,1.557,1.557,0,0,1,.189.777,3.047,3.047,0,0,1-.151,1.249,1.49,1.49,0,0,1-.772.708,2.1,2.1,0,0,1-1.14.189c-.806,0-1.632.051-2.047-.407-.546-.6-.368-.9-.418-1.748Zm14.637-8s-.021-10.233-.021-10.391a20.576,20.576,0,0,0-41.147-.426h4.115a16.478,16.478,0,0,1,32.95.425c0,.528-.006,10.391-.006,10.391h4.108Z" transform="translate(-3061.421 -288.601)" fill="#727575"/>
  <path id="Path_91" data-name="Path 91" d="M3308.3,339.169l.3-.453a.74.74,0,0,0,.265.118.27.27,0,0,0,.276-.1.224.224,0,0,0,.052-.2.293.293,0,0,0-.284-.228.615.615,0,0,0-.3.135,1.091,1.091,0,0,1-.573.224.759.759,0,0,1-.489-.182.877.877,0,0,1-.244-.3.631.631,0,0,1-.066-.365.86.86,0,0,1,.2-.416.726.726,0,0,1,.475-.307.917.917,0,0,1,.595.189l-.294.445a.479.479,0,0,0-.255-.087.234.234,0,0,0-.178.1.184.184,0,0,0-.046.153.214.214,0,0,0,.082.128.169.169,0,0,0,.112.036.388.388,0,0,0,.192-.09,1.922,1.922,0,0,1,.507-.276.675.675,0,0,1,.369-.007.961.961,0,0,1,.344.178,1.069,1.069,0,0,1,.3.359.716.716,0,0,1,.081.41.828.828,0,0,1-.187.413.74.74,0,0,1-.6.351,1.215,1.215,0,0,1-.631-.238Zm-.132-2.6.438-.448.874.338-.359-.866.435-.446.572,1.553.771.752-.4.4-.771-.753-1.566-.536Zm2.7-.284.385-.38a.739.739,0,0,0,.234.172.271.271,0,0,0,.291-.037.224.224,0,0,0,.092-.18.293.293,0,0,0-.229-.283.613.613,0,0,0-.318.069,1.087,1.087,0,0,1-.608.1.758.758,0,0,1-.439-.281.881.881,0,0,1-.176-.341.63.63,0,0,1,.013-.37.858.858,0,0,1,.282-.364.725.725,0,0,1,.53-.2.917.917,0,0,1,.541.311l-.382.372a.479.479,0,0,0-.23-.139.233.233,0,0,0-.2.058.183.183,0,0,0-.077.14.215.215,0,0,0,.053.142.171.171,0,0,0,.1.06.389.389,0,0,0,.206-.047,1.91,1.91,0,0,1,.554-.163.672.672,0,0,1,.361.071.958.958,0,0,1,.3.247,1.071,1.071,0,0,1,.216.414.716.716,0,0,1-.008.417.822.822,0,0,1-.27.363.74.74,0,0,1-.659.216,1.218,1.218,0,0,1-.566-.366Zm.466-2.595,1.43-.952.352.53-.48.32,1.072,1.611-.471.313-1.072-1.611-.479.319-.353-.53Zm1.822-1.177,1.342-.7.256.487-.842.442.19.361.779-.409.244.464-.779.409.235.447.865-.454.271.517-1.365.717-1.2-2.277Zm1.839-.945.7-.265.821,1.361-.29-1.563.7-.264.914,2.4-.434.165-.7-1.834.363,1.96-.39.148-1.03-1.707.7,1.833-.434.165-.914-2.4Zm4.9.128.525.114a1.557,1.557,0,0,1-.062.51.78.78,0,0,1-.205.341.75.75,0,0,1-.379.175.887.887,0,0,1-.5-.027.957.957,0,0,1-.4-.359,1.942,1.942,0,0,1-.284-.746,1.7,1.7,0,0,1,.051-1.009.784.784,0,0,1,.6-.466.736.736,0,0,1,.57.09,1.234,1.234,0,0,1,.4.536l-.459.247a.722.722,0,0,0-.086-.157.386.386,0,0,0-.14-.115.259.259,0,0,0-.16-.019.32.32,0,0,0-.248.269,1.241,1.241,0,0,0,.02.513,1.282,1.282,0,0,0,.2.559.287.287,0,0,0,.285.107.274.274,0,0,0,.217-.173.967.967,0,0,0,.048-.389Zm.676-1.642,1.511-.125.046.548-.948.079.034.407.877-.073.043.522-.876.073.042.5.973-.081.049.582-1.537.128-.213-2.562Zm1.987,2.428.058-2.571.94.021a1,1,0,0,1,.4.072.476.476,0,0,1,.218.239.937.937,0,0,1,.075.418.961.961,0,0,1-.073.367.653.653,0,0,1-.183.247.575.575,0,0,1-.2.1.514.514,0,0,1,.145.1.749.749,0,0,1,.087.137,1.137,1.137,0,0,1,.075.161l.256.752-.638-.014-.283-.793a.633.633,0,0,0-.1-.2.191.191,0,0,0-.136-.063h-.049l-.024,1.044-.569-.012Zm.6-1.518.235.005a.625.625,0,0,0,.148-.031.151.151,0,0,0,.093-.078.305.305,0,0,0,.038-.147.29.29,0,0,0-.051-.192.263.263,0,0,0-.207-.071l-.245-.006-.011.52Zm1.506-.986,1.7.219-.081.631-.572-.074-.247,1.919-.561-.072.247-1.919-.572-.074.082-.631Zm2.119.312.553.116-.526,2.517-.553-.116Zm1.093.235,1.342.385-.153.533-.795-.229-.123.428.68.2-.144.5-.68-.2-.291,1.011-.547-.157.711-2.471Zm1.779.546.531.2-.89,2.413-.53-.2.889-2.413Zm1.522,2.282.359.4a1.56,1.56,0,0,1-.348.378.783.783,0,0,1-.366.157.748.748,0,0,1-.409-.079.884.884,0,0,1-.391-.315.959.959,0,0,1-.115-.526,1.929,1.929,0,0,1,.206-.771,1.693,1.693,0,0,1,.631-.789.785.785,0,0,1,.763-.024.737.737,0,0,1,.41.406,1.238,1.238,0,0,1,.013.671l-.517-.068a.709.709,0,0,0,.022-.178.383.383,0,0,0-.046-.175.261.261,0,0,0-.119-.109.32.32,0,0,0-.359.074,1.242,1.242,0,0,0-.283.428,1.287,1.287,0,0,0-.163.572.287.287,0,0,0,.169.253.273.273,0,0,0,.277-.013A.984.984,0,0,0,3331.174,333.351Zm1.365,1.478-.549-.329-.3.315-.494-.3,1.913-1.851.531.319-.737,2.557-.507-.3Zm.184-.54.3-.895-.647.689.343.206Zm1.711-.805,1.375,1.03-.381.509-.461-.346-1.16,1.549-.453-.339,1.161-1.549-.461-.346.381-.509Zm1.688,1.312.425.372-1.693,1.935-.425-.372Zm-.121,1.589a1.672,1.672,0,0,1,.879-.5.8.8,0,0,1,.735.256.814.814,0,0,1,.24.746,1.637,1.637,0,0,1-.524.849,2.15,2.15,0,0,1-.607.436,1,1,0,0,1-.54.088.8.8,0,0,1-.469-.254.891.891,0,0,1-.256-.464.965.965,0,0,1,.088-.541A1.949,1.949,0,0,1,3336,336.385Zm.39.409a1.135,1.135,0,0,0-.332.462.318.318,0,0,0,.387.406,1.262,1.262,0,0,0,.5-.344,1.041,1.041,0,0,0,.309-.443.318.318,0,0,0-.075-.32.311.311,0,0,0-.313-.079,1.139,1.139,0,0,0-.477.317Zm2.194.464.32.42-.714,1.411,1.132-.863.322.423-2.043,1.56-.323-.422.71-1.4-1.125.859-.323-.422,2.044-1.56Z" transform="translate(-3302.501 -329.116)" fill="#fff"/>
  <path id="Path_92" data-name="Path 92" d="M3073.3,1394.624l.058.889-3.9.258-.058-.889Zm-2.534,1.621.228.818a1.068,1.068,0,0,0-.4.189.434.434,0,0,0-.158.432.368.368,0,0,0,.174.267.422.422,0,0,0,.3.049.412.412,0,0,0,.248-.149,1.008,1.008,0,0,0,.137-.493,1.73,1.73,0,0,1,.311-.909,1.119,1.119,0,0,1,.694-.388,1.3,1.3,0,0,1,.583.021.965.965,0,0,1,.485.3,1.389,1.389,0,0,1,.282.667,1.171,1.171,0,0,1-.116.879,1.358,1.358,0,0,1-.8.5l-.221-.812a.7.7,0,0,0,.35-.209.378.378,0,0,0,.063-.312.294.294,0,0,0-.131-.213.316.316,0,0,0-.228-.037.248.248,0,0,0-.153.1.63.63,0,0,0-.086.321,3.066,3.066,0,0,1-.184.886,1.031,1.031,0,0,1-.358.442,1.412,1.412,0,0,1-.547.221,1.58,1.58,0,0,1-.71-.022,1.106,1.106,0,0,1-.553-.331,1.343,1.343,0,0,1-.29-.651,1.189,1.189,0,0,1,.188-1.071,1.8,1.8,0,0,1,.9-.5Zm1.217,2.8a2.475,2.475,0,0,1,1.534-.154,1.281,1.281,0,0,1,.882.837,1.294,1.294,0,0,1-.1,1.22,2.424,2.424,0,0,1-1.239.878,3.145,3.145,0,0,1-1.112.234,1.525,1.525,0,0,1-.811-.22,1.281,1.281,0,0,1-.508-.663,1.43,1.43,0,0,1-.084-.828,1.471,1.471,0,0,1,.443-.717,2.864,2.864,0,0,1,1-.585Zm.308.836a1.68,1.68,0,0,0-.74.449.506.506,0,0,0,.3.827,1.869,1.869,0,0,0,.906-.172,1.539,1.539,0,0,0,.7-.435.5.5,0,0,0,.083-.5.489.489,0,0,0-.393-.312,1.684,1.684,0,0,0-.858.147Zm.655,4.053.554.584a.671.671,0,0,0-.206.265.224.224,0,0,0,.024.2q.107.159.386.1a3.26,3.26,0,0,0,.752-.363,1.076,1.076,0,0,1-.407-.08.642.642,0,0,1-.271-.237.778.778,0,0,1-.052-.748,1.585,1.585,0,0,1,.636-.745,1.806,1.806,0,0,1,.664-.283,1.08,1.08,0,0,1,.609.04,1.023,1.023,0,0,1,.468.4,1.1,1.1,0,0,1,.218.686,1.358,1.358,0,0,1-.3.7,3.536,3.536,0,0,1-.876.774,2.862,2.862,0,0,1-1.47.591,1.031,1.031,0,0,1-.914-.479,1.144,1.144,0,0,1-.212-.509.9.9,0,0,1,.079-.449,1.653,1.653,0,0,1,.319-.456Zm2.27.245a.9.9,0,0,0,.347-.374.338.338,0,0,0-.01-.338.307.307,0,0,0-.282-.128.914.914,0,0,0-.464.184.951.951,0,0,0-.356.37.317.317,0,0,0,.007.322.329.329,0,0,0,.3.139.863.863,0,0,0,.461-.174Zm.14,1.34a2.987,2.987,0,0,1,1.354-.829,1,1,0,0,1,.934.367,1.024,1.024,0,0,1,.248.418.889.889,0,0,1,.017.4,1.381,1.381,0,0,1-.118.358,2.127,2.127,0,0,1-.224.35,5.021,5.021,0,0,1-.621.672,3.437,3.437,0,0,1-1.332.85.948.948,0,0,1-.978-.344,1,1,0,0,1-.278-.54,1.142,1.142,0,0,1,.1-.582,2.144,2.144,0,0,1,.329-.517,5.438,5.438,0,0,1,.574-.6Zm.533.588a3.551,3.551,0,0,0-.692.759q-.138.255-.014.392a.261.261,0,0,0,.228.078.841.841,0,0,0,.361-.15,5.175,5.175,0,0,0,.608-.494,3.656,3.656,0,0,0,.711-.776q.134-.252,0-.4c-.088-.1-.22-.108-.4-.028A3.852,3.852,0,0,0,3075.885,1406.111Zm1.3,1.393a2.983,2.983,0,0,1,1.218-1.018,1.006,1.006,0,0,1,.978.226,1.029,1.029,0,0,1,.307.378.9.9,0,0,1,.074.389,1.378,1.378,0,0,1-.065.371,2.133,2.133,0,0,1-.17.379,5.057,5.057,0,0,1-.516.756,3.446,3.446,0,0,1-1.193,1.035.948.948,0,0,1-1.018-.2,1,1,0,0,1-.354-.494,1.144,1.144,0,0,1,.009-.589,2.163,2.163,0,0,1,.249-.559A5.451,5.451,0,0,1,3077.183,1407.5Zm.613.5a3.535,3.535,0,0,0-.573.851c-.066.182-.051.312.044.39a.262.262,0,0,0,.237.044.842.842,0,0,0,.335-.2,5.232,5.232,0,0,0,.529-.578,3.662,3.662,0,0,0,.59-.872q.1-.269-.055-.392t-.4.03a3.818,3.818,0,0,0-.711.728Zm4.073.4-2.044,3.409-.694-.416,1.337-2.229a2.513,2.513,0,0,1-.492.084,2.557,2.557,0,0,1-.517-.032l.454-.758a1.639,1.639,0,0,0,1.388-.4l.567.34Zm-.579,2.945.775.358-.455.985-.774-.358Zm.732-1.583.774.358-.455.986-.775-.358Zm2.349,3.935-2.276-.77a2.531,2.531,0,0,1,.528-.779,4.158,4.158,0,0,1,1.065-.7,2.858,2.858,0,0,0,.6-.366.737.737,0,0,0,.207-.3.487.487,0,0,0,.006-.321.3.3,0,0,0-.472-.156.967.967,0,0,0-.272.395l-.73-.34a2.163,2.163,0,0,1,.392-.621.915.915,0,0,1,.462-.26,1.233,1.233,0,0,1,.644.073,1.362,1.362,0,0,1,.58.334.906.906,0,0,1,.221.5,1.341,1.341,0,0,1-.067.618,1.574,1.574,0,0,1-.365.6,2.586,2.586,0,0,1-.76.5q-.3.138-.408.2t-.258.164l1.186.4-.283.837Zm.963-1.779a2.985,2.985,0,0,1,.572-1.481,1.007,1.007,0,0,1,.965-.276,1.028,1.028,0,0,1,.451.182.891.891,0,0,1,.254.3,1.385,1.385,0,0,1,.123.356,2.1,2.1,0,0,1,.035.414,5.074,5.074,0,0,1-.085.911,3.444,3.444,0,0,1-.541,1.484.948.948,0,0,1-.986.321,1,1,0,0,1-.549-.261,1.135,1.135,0,0,1-.278-.52,2.14,2.14,0,0,1-.053-.61A5.445,5.445,0,0,1,3085.333,1411.925Zm.781.144a3.529,3.529,0,0,0-.088,1.022q.046.287.228.32a.26.26,0,0,0,.228-.076.845.845,0,0,0,.2-.338,5.131,5.131,0,0,0,.182-.762,3.632,3.632,0,0,0,.094-1.049c-.031-.188-.111-.293-.239-.317s-.24.049-.331.217A3.846,3.846,0,0,0,3086.113,1412.069Zm1.866.316a2.986,2.986,0,0,1,.349-1.548,1,1,0,0,1,.915-.414,1.03,1.03,0,0,1,.473.114.892.892,0,0,1,.3.264,1.38,1.38,0,0,1,.174.334,2.144,2.144,0,0,1,.095.405,5.029,5.029,0,0,1,.049.914,3.445,3.445,0,0,1-.319,1.547.949.949,0,0,1-.929.462,1,1,0,0,1-.581-.178,1.139,1.139,0,0,1-.35-.474,2.147,2.147,0,0,1-.142-.6,5.445,5.445,0,0,1-.029-.83Zm.793.028a3.542,3.542,0,0,0,.062,1.024q.088.277.272.283a.26.26,0,0,0,.215-.109.841.841,0,0,0,.144-.362,5.2,5.2,0,0,0,.069-.781,3.641,3.641,0,0,0-.061-1.051c-.059-.181-.152-.274-.282-.278s-.231.083-.3.264a3.84,3.84,0,0,0-.123,1.01Zm1.891.04a2.989,2.989,0,0,1,.119-1.583,1.006,1.006,0,0,1,.844-.543,1.031,1.031,0,0,1,.484.044.884.884,0,0,1,.33.218,1.407,1.407,0,0,1,.221.305,2.112,2.112,0,0,1,.153.387,5.011,5.011,0,0,1,.181.9,3.453,3.453,0,0,1-.089,1.577.949.949,0,0,1-.852.592,1,1,0,0,1-.6-.091,1.142,1.142,0,0,1-.416-.418,2.142,2.142,0,0,1-.227-.569A5.448,5.448,0,0,1,3090.664,1412.454Zm.788-.088a3.567,3.567,0,0,0,.211,1q.127.261.31.241a.262.262,0,0,0,.2-.139.844.844,0,0,0,.09-.38,5.264,5.264,0,0,0-.045-.782,3.665,3.665,0,0,0-.213-1.031c-.084-.171-.191-.249-.319-.234s-.216.116-.255.3a3.856,3.856,0,0,0,.025,1.017Z" transform="translate(-3069.244 -1373.353)" fill="#d66930"/>
</svg>
