<svg id="Facebook" xmlns="http://www.w3.org/2000/svg" width="6.546" height="14.065" viewBox="0 0 6.546 14.065">
  <path id="Facebook-2" data-name="Facebook" d="M4.3,0H6.527q0,1.195,0,2.389a.213.213,0,0,1-.009.036H6.438c-.356,0-.713,0-1.069,0a3.122,3.122,0,0,0-.449.032.563.563,0,0,0-.522.429.991.991,0,0,0-.034.234c-.006.484-.006.966-.009,1.449a.311.311,0,0,0,.006.042H6.546c-.086.812-.171,1.614-.255,2.424H4.353v6.944a.842.842,0,0,0,.007.085H1.447c0-.033,0-.067,0-.1V7.03H0V4.607H1.445v-.09c0-.507,0-1.015,0-1.521a4.157,4.157,0,0,1,.2-1.292A2.231,2.231,0,0,1,2.755.372,3.247,3.247,0,0,1,3.875.044C4.017.026,4.16.014,4.3,0Z" transform="translate(0)" fill="#fff"/>
</svg>
