<svg xmlns="http://www.w3.org/2000/svg" width="14.41" height="14.41" viewBox="0 0 14.41 14.41">
  <g id="instagram" transform="translate(-1738.147 -11.146)">
    <g id="instagram-2" data-name="instagram" transform="translate(1738.147 11.146)">
      <path id="Path_84" data-name="Path 84" d="M746.2,428.159c-1.957,0-2.2.008-2.971.043a5.286,5.286,0,0,0-1.749.335,3.684,3.684,0,0,0-2.107,2.107,5.288,5.288,0,0,0-.335,1.749c-.035.768-.043,1.014-.043,2.971s.008,2.2.043,2.971a5.288,5.288,0,0,0,.335,1.749,3.684,3.684,0,0,0,2.107,2.107,5.287,5.287,0,0,0,1.749.335c.768.035,1.014.043,2.971.043s2.2-.008,2.97-.043a5.288,5.288,0,0,0,1.749-.335,3.684,3.684,0,0,0,2.107-2.107,5.288,5.288,0,0,0,.335-1.749c.035-.768.043-1.014.043-2.971s-.008-2.2-.043-2.971a5.288,5.288,0,0,0-.335-1.749,3.684,3.684,0,0,0-2.107-2.107,5.286,5.286,0,0,0-1.749-.335c-.768-.035-1.014-.043-2.97-.043Zm0,1.3c1.924,0,2.152.007,2.911.042a3.985,3.985,0,0,1,1.338.248,2.385,2.385,0,0,1,1.367,1.367,3.99,3.99,0,0,1,.248,1.338c.035.76.042.988.042,2.911s-.007,2.152-.042,2.911a3.988,3.988,0,0,1-.248,1.338,2.386,2.386,0,0,1-1.367,1.367,3.987,3.987,0,0,1-1.338.248c-.76.035-.987.042-2.911.042s-2.152-.007-2.911-.042a3.988,3.988,0,0,1-1.338-.248,2.386,2.386,0,0,1-1.367-1.367,3.987,3.987,0,0,1-.248-1.338c-.035-.76-.042-.988-.042-2.911s.007-2.152.042-2.911a3.988,3.988,0,0,1,.248-1.338,2.385,2.385,0,0,1,1.367-1.367,3.986,3.986,0,0,1,1.338-.248c.76-.035.988-.042,2.911-.042" transform="translate(-739 -428.159)" fill="#fff"/>
      <path id="Path_85" data-name="Path 85" d="M865.256,556.816a2.4,2.4,0,1,1,2.4-2.4,2.4,2.4,0,0,1-2.4,2.4Zm0-6.1a3.7,3.7,0,1,0,3.7,3.7,3.7,3.7,0,0,0-3.7-3.7Z" transform="translate(-858.051 -547.21)" fill="#fff"/>
      <path id="Path_86" data-name="Path 86" d="M1096.9,516.238a.865.865,0,1,1-.865-.865.865.865,0,0,1,.865.865Z" transform="translate(-1084.98 -512.879)" fill="#fff"/>
    </g>
  </g>
</svg>
