<svg xmlns="http://www.w3.org/2000/svg" width="92.49" height="30.493" viewBox="0 0 92.49 30.493">
  <g id="Logo" transform="translate(-737.225 -609.083)">
    <g id="Logo-2" data-name="Logo" transform="translate(737.225 609.083)">
      <path id="Path_93" data-name="Path 93" d="M780.531,623.389l-13.6-13.572a2.514,2.514,0,0,0-3.552,0L757.3,615.9v-3.579a1.257,1.257,0,0,0-1.257-1.257h-7.666a1.257,1.257,0,0,0-1.257,1.257v13.759l-9.158,9.158a2.513,2.513,0,1,0,3.554,3.555l23.639-23.639,11.825,11.8a2.513,2.513,0,0,0,3.551-3.558Zm-30.9-9.815h5.153v4.836l-5.153,5.152Z" transform="translate(-737.225 -609.083)" fill="#fff"/>
      <g id="Group_43" data-name="Group 43" transform="translate(16.166 20.376)">
        <path id="Path_94" data-name="Path 94" d="M804.337,700.13h-2.794v-8.539a1.288,1.288,0,0,1,.513-1.169,1.744,1.744,0,0,1,1.069-.271h3.507a2.966,2.966,0,0,1,2.181.784,4.022,4.022,0,0,1,.813,2.766,5.783,5.783,0,0,1-.613,2.965,2.969,2.969,0,0,1-2.609,1.041h-2.067Zm1.226-4.447a1.11,1.11,0,0,0,1.041-.585,2.63,2.63,0,0,0,.171-1.183,3.18,3.18,0,0,0-.128-1.1,1.023,1.023,0,0,0-1-.641h-.983a.47.47,0,0,0-.228.1.41.41,0,0,0-.1.257v3.151Z" transform="translate(-801.543 -690.152)" fill="#fff"/>
      </g>
      <g id="Group_44" data-name="Group 44" transform="translate(24.762 20.29)">
        <path id="Path_95" data-name="Path 95" d="M843.47,690.581a5.3,5.3,0,0,1,0,6.187,7.738,7.738,0,0,1-6.729,0,5.295,5.295,0,0,1,0-6.187,7.739,7.739,0,0,1,6.729,0Zm-4.6,4.419a1.419,1.419,0,0,0,1.241.513,1.4,1.4,0,0,0,1.226-.513,3.366,3.366,0,0,0,.014-2.68,1.83,1.83,0,0,0-2.481,0,2.291,2.291,0,0,0-.271,1.354A2.237,2.237,0,0,0,838.866,695Z" transform="translate(-835.744 -689.811)" fill="#fff"/>
      </g>
      <g id="Group_45" data-name="Group 45" transform="translate(34.17 20.376)">
        <path id="Path_96" data-name="Path 96" d="M873.178,691.506a1.173,1.173,0,0,1,.314-.926,2.367,2.367,0,0,1,1.654-.428h2.623a3.829,3.829,0,0,1,2.537.67,2.672,2.672,0,0,1,.941,2.238v4.647h-2.794v-3.835a1.986,1.986,0,0,0-.313-1.3,1.31,1.31,0,0,0-1.155-.456h-.5a.578.578,0,0,0-.385.114.5.5,0,0,0-.128.428v5.046h-2.794Z" transform="translate(-873.178 -690.152)" fill="#fff"/>
      </g>
      <g id="Group_46" data-name="Group 46" transform="translate(42.923 20.376)">
        <path id="Path_97" data-name="Path 97" d="M908.089,695.683h4.12a.409.409,0,0,0,.171-.057.158.158,0,0,0,.071-.143.188.188,0,0,0-.128-.171,7.379,7.379,0,0,0-.856-.3l-1.625-.528a2.769,2.769,0,0,1-1.554-1,2.7,2.7,0,0,1-.285-1.269,2.385,2.385,0,0,1,.356-1.354,1.834,1.834,0,0,1,1.753-.713h5.046v1.939h-4.105a1.3,1.3,0,0,0-.328.014c-.071.014-.128.029-.128.128s.071.142.157.171c.342.114.242.1.57.214l1.91.642a3.109,3.109,0,0,1,1.739,1.026,2.55,2.55,0,0,1,.385,1.454,1.978,1.978,0,0,1-.627,1.611,1.915,1.915,0,0,1-1.24.356h-5.4Z" transform="translate(-908.004 -690.152)" fill="#fff"/>
      </g>
      <g id="Group_47" data-name="Group 47" transform="translate(50.964 20.376)">
        <path id="Path_98" data-name="Path 98" d="M942.9,697.707a2.4,2.4,0,0,1-2.309-.983,5.606,5.606,0,0,1-.6-2.979,3.7,3.7,0,0,1,.841-2.823,2.8,2.8,0,0,1,2.253-.77h1.881a1.907,1.907,0,0,1,1.155.271,1.238,1.238,0,0,1,.442,1.055v5.36a3.785,3.785,0,0,1-.613,2.452,3.325,3.325,0,0,1-2.4.841h-3.022v-.67h3.022a2.744,2.744,0,0,0,1.7-.471,1.965,1.965,0,0,0,.57-1.283Zm2.922-6.272a.52.52,0,0,0-.214-.5.8.8,0,0,0-.456-.114h-2.338a1.856,1.856,0,0,0-1.4.527,3.817,3.817,0,0,0-.627,2.537c0,1.967.456,2.523.57,2.666a1.8,1.8,0,0,0,1.5.484h2.965Z" transform="translate(-939.993 -690.152)" fill="#fff"/>
      </g>
      <g id="Group_48" data-name="Group 48" transform="translate(58.961 20.376)">
        <path id="Path_99" data-name="Path 99" d="M971.811,692.746a2.265,2.265,0,0,1,2.523-2.594h.513v.67h-.456a1.826,1.826,0,0,0-1.454.527,2.479,2.479,0,0,0-.385,1.568v4.789h-.741Z" transform="translate(-971.811 -690.152)" fill="#fff"/>
      </g>
      <g id="Group_49" data-name="Group 49" transform="translate(62.282 20.376)">
        <path id="Path_100" data-name="Path 100" d="M989.3,690.152a1.84,1.84,0,0,1,1.326.527,2.2,2.2,0,0,1,.456,1.511v4.519a1.057,1.057,0,0,1-.257.784,1.249,1.249,0,0,1-.855.214h-2.908a2.12,2.12,0,0,1-1.369-.342,2.651,2.651,0,0,1-.67-2,1.826,1.826,0,0,1,2.038-2.181h3.279v-1.126a1.666,1.666,0,0,0-.285-.9,1.048,1.048,0,0,0-.8-.342H985.6v-.67Zm-2.409,3.706a1.006,1.006,0,0,0-.827.37,1.989,1.989,0,0,0-.242,1.169,2.189,2.189,0,0,0,.3,1.312.981.981,0,0,0,.741.327h3.051a.5.5,0,0,0,.328-.085.275.275,0,0,0,.1-.257v-2.837Z" transform="translate(-985.027 -690.152)" fill="#fff"/>
      </g>
      <g id="Group_50" data-name="Group 50" transform="translate(69.481 17.952)">
        <path id="Path_101" data-name="Path 101" d="M1019.642,690.217a1.044,1.044,0,0,1-.827.271h-2.352a2.424,2.424,0,0,1-2.452-1.525,6.643,6.643,0,0,1-.342-2.452,4.108,4.108,0,0,1,.57-2.452,2.852,2.852,0,0,1,2.566-1.126h2.3v-2.424h.741v8.881A1.517,1.517,0,0,1,1019.642,690.217Zm-3.008-6.615a1.961,1.961,0,0,0-1.8.855,4.354,4.354,0,0,0-.371,2.167,5.887,5.887,0,0,0,.214,2.024,1.891,1.891,0,0,0,1.953,1.169h1.9a.726.726,0,0,0,.456-.114,1.033,1.033,0,0,0,.114-.527V683.6Z" transform="translate(-1013.669 -680.509)" fill="#fff"/>
      </g>
      <g id="Group_51" data-name="Group 51" transform="translate(77.079 20.376)">
        <path id="Path_102" data-name="Path 102" d="M1043.9,691.136a1.158,1.158,0,0,1,.171-.7.886.886,0,0,1,.741-.285h2.708a2.032,2.032,0,0,1,2.338,2.309v5.246h-.741v-5.06a2.032,2.032,0,0,0-.328-1.354,1.406,1.406,0,0,0-1.226-.471h-2.68c-.071,0-.157,0-.2.057a.435.435,0,0,0-.043.228v6.6h-.741Z" transform="translate(-1043.9 -690.152)" fill="#fff"/>
      </g>
      <g id="Group_52" data-name="Group 52" transform="translate(82.183 17.952)">
        <path id="Path_103" data-name="Path 103" d="M1064.2,692.355a2.3,2.3,0,0,0,1.754-.4,1.586,1.586,0,0,0,.584-1.482v-7.541h.741v7.683a2.337,2.337,0,0,1-.855,1.939,3.254,3.254,0,0,1-2.224.471Zm2.31-10.791v-1.055h.8v1.055Z" transform="translate(-1064.205 -680.509)" fill="#fff"/>
      </g>
      <g id="Group_53" data-name="Group 53" transform="translate(86.431 20.376)">
        <path id="Path_104" data-name="Path 104" d="M1085.384,690.152a1.84,1.84,0,0,1,1.326.527,2.2,2.2,0,0,1,.456,1.511v4.519a1.058,1.058,0,0,1-.257.784,1.25,1.25,0,0,1-.856.214h-2.908a2.119,2.119,0,0,1-1.368-.342,2.652,2.652,0,0,1-.67-2,1.826,1.826,0,0,1,2.039-2.181h3.278v-1.126a1.666,1.666,0,0,0-.285-.9,1.048,1.048,0,0,0-.8-.342h-3.664v-.67Zm-2.409,3.706a1.006,1.006,0,0,0-.827.37,1.986,1.986,0,0,0-.242,1.169,2.19,2.19,0,0,0,.3,1.312.981.981,0,0,0,.741.327H1086a.5.5,0,0,0,.328-.085.275.275,0,0,0,.1-.257v-2.837Z" transform="translate(-1081.107 -690.152)" fill="#fff"/>
      </g>
    </g>
  </g>
</svg>
