<svg id="Youtube" xmlns="http://www.w3.org/2000/svg" width="16.747" height="11.763" viewBox="0 0 16.747 11.763">
  <path id="Youtube-2" data-name="Youtube" d="M247.016,1365.686q0,1.4-.019,1.744-.077,1.131-.153,1.648a4.039,4.039,0,0,1-.249.939,1.875,1.875,0,0,1-.46.728,2.21,2.21,0,0,1-1.169.613q-3.641.269-7.76.192-2.414-.038-3.439-.086a11.584,11.584,0,0,1-1.523-.144,2.24,2.24,0,0,1-1.13-.594,2.605,2.605,0,0,1-.536-1.054,3.592,3.592,0,0,1-.144-.594q-.048-.307-.086-.92a39.536,39.536,0,0,1,0-4.944l.115-.939a4.453,4.453,0,0,1,.211-.92,2.1,2.1,0,0,1,.5-.766,2.451,2.451,0,0,1,1.13-.575,19.457,19.457,0,0,1,2.328-.153q1.849-.057,4.014-.057t4.014.067q1.849.068,2.347.144a2.343,2.343,0,0,1,.738.287,1.9,1.9,0,0,1,.565.5,3.479,3.479,0,0,1,.441,1.035,5.813,5.813,0,0,1,.192,1.092q0,.1.057,1.016Q247.016,1364.288,247.016,1365.686Zm-7.722.939q1.513-.766,2.146-1.111l-4.5-2.376v4.733Q237.723,1367.43,239.294,1366.625Z" transform="translate(-230.27 -1359.804)" fill="#fff"/>
</svg>
